<svg xmlns="http://www.w3.org/2000/svg" xmlns:xlink="http://www.w3.org/1999/xlink" width="500" zoomAndPan="magnify" viewBox="0 0 375 374.999991" height="500" preserveAspectRatio="xMidYMid meet" version="1.0"><path fill="#000000" d="M 14.5 161.613281 L 120.851562 55.078125 L 151.945312 86.359375 C 147.53125 102 154.707031 119.109375 169.058594 127.390625 L 169.058594 229.324219 C 158.019531 235.582031 150.65625 247.539062 150.65625 261.15625 C 150.65625 270.917969 154.535156 280.277344 161.4375 287.175781 C 168.335938 294.078125 177.699219 297.957031 187.457031 297.957031 C 197.21875 297.957031 206.578125 294.078125 213.480469 287.175781 C 220.378906 280.277344 224.257812 270.917969 224.257812 261.15625 C 224.257812 247.539062 216.898438 235.582031 205.859375 229.324219 L 205.859375 139.902344 L 243.945312 178.355469 C 242.65625 181.117188 242.65625 184.246094 242.65625 187.554688 C 242.65625 197.316406 246.53125 206.675781 253.4375 213.578125 C 260.335938 220.480469 269.695312 224.355469 279.457031 224.355469 C 289.214844 224.355469 298.578125 220.480469 305.476562 213.578125 C 312.378906 206.675781 316.257812 197.316406 316.257812 187.554688 C 316.257812 177.796875 312.378906 168.4375 305.476562 161.535156 C 298.578125 154.636719 289.214844 150.757812 279.457031 150.757812 C 276.144531 150.757812 273.015625 150.757812 270.257812 152.046875 L 222.96875 104.757812 C 227.753906 87.648438 218.921875 68.878906 201.808594 61.703125 C 193.898438 58.757812 185.617188 58.023438 178.257812 60.046875 L 146.976562 28.953125 L 161.515625 14.601562 C 175.867188 0.0625 199.050781 0.0625 213.402344 14.601562 L 360.414062 161.613281 C 374.953125 175.964844 374.953125 199.148438 360.414062 213.5 L 213.402344 360.515625 C 199.050781 375.050781 175.867188 375.050781 161.515625 360.515625 L 14.5 213.5 C -0.0351562 199.148438 -0.0351562 175.964844 14.5 161.613281 Z M 14.5 161.613281 " fill-opacity="1" fill-rule="nonzero"/></svg>