<svg xmlns="http://www.w3.org/2000/svg" xmlns:xlink="http://www.w3.org/1999/xlink" width="500" zoomAndPan="magnify" viewBox="0 0 375 374.999991" height="500" preserveAspectRatio="xMidYMid meet" version="1.0"><defs><clipPath id="95824e724e"><path d="M 7.5 7 L 367.5 7 L 367.5 368 L 7.5 368 Z M 7.5 7 " clip-rule="nonzero"/></clipPath></defs><g clip-path="url(#95824e724e)"><path fill="#000000" d="M 187.5 7.5 C 88.089844 7.5 7.5 88.089844 7.5 187.5 C 7.5 286.910156 88.089844 367.5 187.5 367.5 C 286.910156 367.5 367.5 286.910156 367.5 187.5 C 367.5 88.089844 286.910156 7.5 187.5 7.5 Z M 37.5 187.5 C 37.5 104.65625 104.65625 37.5 187.5 37.5 C 270.34375 37.5 337.5 104.65625 337.5 187.5 C 337.5 255.007812 292.90625 312.097656 231.570312 330.921875 C 233.246094 300.605469 232.671875 281.824219 229.847656 274.582031 C 226.863281 266.941406 224.433594 263.808594 222.976562 261.929688 C 222.019531 260.699219 221.484375 260.007812 221.484375 258.9375 C 221.484375 257.136719 222.75 255.832031 225.285156 255.023438 C 247.386719 250.136719 262.207031 236.554688 269.746094 214.277344 C 280.195312 183.40625 265.28125 160.960938 259.25 151.875 C 258.75 151.125 258.3125 150.46875 257.953125 149.902344 C 253.265625 142.496094 259.410156 124.472656 266.75 110.050781 C 241.789062 105.046875 232.261719 116.640625 226.792969 123.292969 C 224.558594 126.007812 223.003906 127.898438 221.355469 127.496094 C 219.878906 127.136719 218.292969 126.441406 216.390625 125.601562 C 210.941406 123.210938 202.902344 119.675781 187.5 119.675781 C 168.398438 119.675781 155.742188 126.347656 153.808594 127.367188 C 153.636719 127.457031 153.550781 127.496094 153.550781 127.496094 C 143.507812 113.503906 129.25 107.6875 110.773438 110.050781 C 115.863281 130.386719 116.242188 143.667969 111.921875 149.902344 C 105.433594 159.253906 93.277344 181.003906 102.714844 214.277344 C 112.152344 247.550781 146.515625 255.023438 153.054688 255.023438 L 153.097656 255.03125 C 153.617188 255.144531 158.429688 256.183594 156.984375 260.25 C 156.703125 261.332031 156.515625 262.804688 156.300781 264.464844 C 155.621094 269.792969 154.691406 277.03125 149.585938 279.386719 C 142.882812 282.472656 128.101562 284.160156 121.921875 280.304688 C 119.859375 279.019531 118.378906 276.335938 116.597656 273.101562 C 113.03125 266.628906 108.253906 257.953125 95.183594 253.921875 C 75.582031 247.867188 76.8125 255.871094 81.703125 257.832031 C 82.78125 258.265625 84.207031 258.671875 85.835938 259.132812 C 91.609375 260.765625 99.910156 263.117188 104.167969 269.964844 C 105.414062 271.972656 106.699219 274.171875 108.007812 276.417969 C 112.4375 284 117.179688 292.128906 121.921875 295.246094 C 126.015625 297.941406 135.835938 299.019531 151.371094 298.480469 C 150.695312 313.152344 150.335938 324.605469 150.289062 332.847656 C 85.445312 316.296875 37.5 257.5 37.5 187.5 Z M 37.5 187.5 " fill-opacity="0.85" fill-rule="evenodd"/></g></svg>