<svg xmlns="http://www.w3.org/2000/svg" xmlns:xlink="http://www.w3.org/1999/xlink" width="500" zoomAndPan="magnify" viewBox="0 0 375 374.999991" height="500" preserveAspectRatio="xMidYMid meet" version="1.0"><path fill="#000000" d="M 195.105469 246.648438 L 195.105469 335.191406 C 201.234375 334.878906 207.257812 334.148438 213.171875 333.109375 C 233.703125 318.28125 250.546875 286.488281 259.113281 246.648438 Z M 195.105469 246.648438 " fill-opacity="1" fill-rule="nonzero"/><path fill="#000000" d="M 179.894531 128.351562 L 179.894531 39.800781 C 173.757812 40.113281 167.742188 40.84375 161.828125 41.886719 C 141.296875 56.71875 124.453125 88.511719 115.886719 128.347656 L 179.894531 128.347656 Z M 179.894531 128.351562 " fill-opacity="1" fill-rule="nonzero"/><path fill="#000000" d="M 322.996094 128.351562 C 307.550781 93.117188 278.765625 65.027344 243.058594 50.492188 C 257.496094 69.882812 268.652344 96.765625 274.882812 128.351562 Z M 322.996094 128.351562 " fill-opacity="1" fill-rule="nonzero"/><path fill="#000000" d="M 213.171875 41.886719 C 207.257812 40.851562 201.234375 40.113281 195.105469 39.800781 L 195.105469 128.34375 L 259.117188 128.34375 C 250.554688 88.503906 233.699219 56.710938 213.171875 41.886719 Z M 213.171875 41.886719 " fill-opacity="1" fill-rule="nonzero"/><path fill="#000000" d="M 161.828125 333.109375 C 167.742188 334.148438 173.765625 334.878906 179.894531 335.191406 L 179.894531 246.648438 L 115.878906 246.648438 C 124.453125 286.492188 141.296875 318.285156 161.828125 333.109375 Z M 161.828125 333.109375 " fill-opacity="1" fill-rule="nonzero"/><path fill="#000000" d="M 52.003906 246.648438 C 67.445312 281.882812 96.234375 309.972656 131.941406 324.511719 C 117.503906 305.109375 106.347656 278.238281 100.121094 246.648438 Z M 52.003906 246.648438 " fill-opacity="1" fill-rule="nonzero"/><path fill="#000000" d="M 243.058594 324.515625 C 278.765625 309.976562 307.550781 281.886719 322.996094 246.65625 L 274.882812 246.65625 C 268.660156 278.238281 257.496094 305.113281 243.058594 324.515625 Z M 243.058594 324.515625 " fill-opacity="1" fill-rule="nonzero"/><path fill="#000000" d="M 131.941406 50.484375 C 96.234375 65.019531 67.445312 93.117188 52.003906 128.34375 L 100.121094 128.34375 C 106.339844 96.761719 117.496094 69.882812 131.941406 50.484375 Z M 131.941406 50.484375 " fill-opacity="1" fill-rule="nonzero"/><path fill="#000000" d="M 187.5 0 C 84.109375 0 0 84.109375 0 187.5 C 0 290.886719 84.109375 375 187.5 375 C 290.886719 375 375 290.886719 375 187.5 C 375 84.109375 290.886719 0 187.5 0 Z M 187.5 356.144531 C 94.503906 356.144531 18.855469 280.488281 18.855469 187.5 C 18.855469 94.503906 94.507812 18.855469 187.5 18.855469 C 280.492188 18.855469 356.144531 94.503906 356.144531 187.5 C 356.144531 280.492188 280.492188 356.144531 187.5 356.144531 Z M 187.5 356.144531 " fill-opacity="1" fill-rule="nonzero"/><path fill="#000000" d="M 83.355469 217.535156 L 96.128906 175.925781 L 96.820312 175.925781 L 109.585938 217.535156 L 119.753906 217.535156 L 140.945312 156.820312 L 129.917969 156.820312 L 114.625 200.511719 L 101.078125 156.820312 L 91.875 156.820312 L 78.320312 200.511719 L 63.035156 156.820312 L 52.003906 156.820312 L 73.203125 217.535156 Z M 83.355469 217.535156 " fill-opacity="1" fill-rule="nonzero"/><path fill="#000000" d="M 210.785156 217.535156 L 231.976562 156.820312 L 220.949219 156.820312 L 205.65625 200.511719 L 192.109375 156.820312 L 182.90625 156.820312 L 169.351562 200.511719 L 154.066406 156.820312 L 143.03125 156.820312 L 164.230469 217.535156 L 174.386719 217.535156 L 187.160156 175.925781 L 187.851562 175.925781 L 200.617188 217.535156 Z M 210.785156 217.535156 " fill-opacity="1" fill-rule="nonzero"/><path fill="#000000" d="M 296.683594 200.511719 L 283.128906 156.820312 L 273.929688 156.820312 L 260.378906 200.511719 L 245.085938 156.820312 L 234.050781 156.820312 L 255.25 217.535156 L 265.410156 217.535156 L 278.183594 175.925781 L 278.875 175.925781 L 291.644531 217.535156 L 301.808594 217.535156 L 322.996094 156.820312 L 311.96875 156.820312 Z M 296.683594 200.511719 " fill-opacity="1" fill-rule="nonzero"/></svg>