<svg xmlns="http://www.w3.org/2000/svg" xmlns:xlink="http://www.w3.org/1999/xlink" width="500" zoomAndPan="magnify" viewBox="0 0 375 374.999991" height="500" preserveAspectRatio="xMidYMid meet" version="1.0"><defs><clipPath id="47c61a7b87"><path d="M 3 2.03125 L 371 2.03125 L 371 370 L 3 370 Z M 3 2.03125 " clip-rule="nonzero"/></clipPath></defs><g clip-path="url(#47c61a7b87)"><path fill="#000000" d="M 83.539062 81.125 C 84.171875 80.417969 84.765625 79.679688 85.328125 78.917969 C 85.886719 78.152344 86.410156 77.363281 86.894531 76.546875 C 87.382812 75.730469 87.828125 74.894531 88.230469 74.039062 C 88.636719 73.179688 89 72.308594 89.320312 71.414062 C 89.644531 70.523438 89.921875 69.617188 90.15625 68.699219 C 90.390625 67.777344 90.582031 66.851562 90.730469 65.914062 C 90.875 64.976562 90.976562 64.035156 91.035156 63.089844 C 91.089844 62.140625 91.101562 61.195312 91.066406 60.246094 C 91.035156 59.296875 90.953125 58.355469 90.832031 57.414062 C 90.707031 56.472656 90.539062 55.542969 90.324219 54.617188 C 90.109375 53.691406 89.855469 52.78125 89.554688 51.882812 C 89.253906 50.980469 88.910156 50.097656 88.527344 49.230469 C 88.140625 48.367188 87.714844 47.519531 87.25 46.691406 C 86.785156 45.867188 86.28125 45.066406 85.738281 44.289062 C 85.195312 43.507812 84.617188 42.757812 84.003906 42.035156 C 83.390625 41.3125 82.742188 40.621094 82.0625 39.960938 L 61.835938 19.71875 C 61.136719 19.011719 60.550781 18.214844 60.082031 17.332031 C 59.617188 16.449219 59.285156 15.519531 59.09375 14.539062 C 58.902344 13.558594 58.855469 12.574219 58.953125 11.578125 C 59.054688 10.585938 59.292969 9.628906 59.675781 8.707031 C 60.058594 7.785156 60.5625 6.9375 61.195312 6.164062 C 61.828125 5.390625 62.558594 4.726562 63.386719 4.171875 C 64.214844 3.613281 65.105469 3.191406 66.058594 2.898438 C 67.015625 2.605469 67.988281 2.457031 68.988281 2.453125 C 70.324219 2.425781 71.65625 2.4375 72.992188 2.492188 C 74.328125 2.546875 75.65625 2.640625 76.988281 2.773438 C 78.316406 2.90625 79.640625 3.082031 80.957031 3.296875 C 82.273438 3.511719 83.585938 3.761719 84.890625 4.054688 C 86.191406 4.347656 87.484375 4.679688 88.769531 5.050781 C 90.050781 5.421875 91.320312 5.832031 92.578125 6.28125 C 93.839844 6.726562 95.082031 7.210938 96.3125 7.734375 C 97.539062 8.257812 98.753906 8.816406 99.949219 9.414062 C 101.144531 10.007812 102.320312 10.640625 103.476562 11.308594 C 104.636719 11.972656 105.773438 12.675781 106.886719 13.410156 C 108.003906 14.144531 109.09375 14.914062 110.164062 15.714844 C 111.230469 16.515625 112.277344 17.347656 113.292969 18.210938 C 114.3125 19.078125 115.304688 19.972656 116.269531 20.894531 C 117.234375 21.820312 118.171875 22.769531 119.078125 23.75 C 119.988281 24.730469 120.863281 25.738281 121.710938 26.773438 C 122.558594 27.804688 123.375 28.863281 124.15625 29.945312 C 124.941406 31.027344 125.691406 32.132812 126.40625 33.261719 C 127.125 34.390625 127.804688 35.539062 128.453125 36.707031 C 129.101562 37.875 129.710938 39.0625 130.289062 40.269531 C 130.863281 41.476562 131.402344 42.699219 131.90625 43.9375 C 132.410156 45.175781 132.875 46.425781 133.300781 47.691406 C 133.726562 48.960938 134.117188 50.238281 134.464844 51.527344 C 134.816406 52.816406 135.125 54.117188 135.398438 55.425781 C 135.671875 56.734375 135.902344 58.050781 136.09375 59.371094 C 136.289062 60.695312 136.441406 62.023438 136.554688 63.355469 C 136.664062 64.6875 136.738281 66.019531 136.769531 67.355469 C 136.800781 68.691406 136.792969 70.027344 136.746094 71.363281 C 136.699219 72.699219 136.609375 74.03125 136.480469 75.363281 C 136.351562 76.695312 136.183594 78.019531 135.976562 79.339844 C 135.769531 80.660156 135.519531 81.972656 135.234375 83.277344 C 134.945312 84.582031 134.617188 85.878906 134.253906 87.164062 C 133.886719 88.449219 133.484375 89.722656 133.042969 90.984375 L 187.074219 145.0625 L 161.648438 170.511719 L 152.460938 161.316406 C 151.960938 160.8125 151.433594 160.335938 150.886719 159.886719 C 150.335938 159.4375 149.769531 159.015625 149.179688 158.621094 C 148.585938 158.226562 147.980469 157.863281 147.355469 157.527344 C 146.726562 157.191406 146.085938 156.890625 145.433594 156.617188 C 144.777344 156.347656 144.109375 156.109375 143.429688 155.902344 C 142.75 155.695312 142.0625 155.523438 141.367188 155.386719 C 140.671875 155.246094 139.96875 155.144531 139.265625 155.074219 C 138.558594 155.003906 137.851562 154.96875 137.140625 154.96875 C 136.433594 154.96875 135.722656 155.003906 135.019531 155.074219 C 134.3125 155.144531 133.609375 155.25 132.914062 155.386719 C 132.21875 155.527344 131.53125 155.699219 130.851562 155.90625 C 130.175781 156.113281 129.507812 156.351562 128.851562 156.621094 C 128.195312 156.894531 127.554688 157.199219 126.929688 157.53125 C 126.304688 157.867188 125.695312 158.230469 125.105469 158.625 C 124.515625 159.019531 123.949219 159.445312 123.398438 159.894531 C 122.851562 160.34375 122.324219 160.820312 121.824219 161.324219 L 121.664062 161.484375 L 92.171875 131.96875 C 90.90625 132.414062 89.628906 132.820312 88.335938 133.1875 C 87.046875 133.550781 85.746094 133.878906 84.433594 134.167969 C 83.125 134.457031 81.804688 134.703125 80.480469 134.910156 C 79.15625 135.121094 77.824219 135.289062 76.488281 135.414062 C 75.152344 135.542969 73.8125 135.628906 72.472656 135.675781 C 71.132812 135.722656 69.789062 135.726562 68.449219 135.691406 C 67.105469 135.65625 65.769531 135.582031 64.429688 135.464844 C 63.09375 135.351562 61.761719 135.195312 60.433594 134.996094 C 59.105469 134.800781 57.785156 134.5625 56.472656 134.289062 C 55.160156 134.011719 53.855469 133.695312 52.5625 133.339844 C 51.269531 132.984375 49.988281 132.589844 48.714844 132.15625 C 47.445312 131.722656 46.191406 131.25 44.949219 130.742188 C 43.707031 130.230469 42.480469 129.683594 41.273438 129.101562 C 40.066406 128.519531 38.875 127.898438 37.703125 127.242188 C 36.53125 126.585938 35.382812 125.898438 34.253906 125.171875 C 33.125 124.445312 32.015625 123.6875 30.933594 122.894531 C 29.851562 122.101562 28.792969 121.277344 27.757812 120.421875 C 26.726562 119.566406 25.71875 118.675781 24.738281 117.761719 C 23.757812 116.84375 22.804688 115.894531 21.882812 114.921875 C 20.960938 113.945312 20.070312 112.945312 19.207031 111.914062 C 18.34375 110.886719 17.515625 109.832031 16.714844 108.75 C 15.917969 107.671875 15.152344 106.570312 14.421875 105.445312 C 13.6875 104.316406 12.992188 103.171875 12.328125 102.003906 C 11.667969 100.835938 11.039062 99.648438 10.449219 98.441406 C 9.859375 97.234375 9.304688 96.011719 8.789062 94.773438 C 8.273438 93.535156 7.792969 92.28125 7.351562 91.011719 C 6.914062 89.742188 6.511719 88.460938 6.148438 87.167969 C 5.785156 85.875 5.460938 84.574219 5.175781 83.261719 C 4.890625 81.949219 4.644531 80.628906 4.441406 79.300781 C 4.238281 77.972656 4.070312 76.640625 3.949219 75.304688 C 3.824219 73.96875 3.738281 72.628906 3.695312 71.285156 C 3.652344 69.941406 3.652344 68.601562 3.6875 67.257812 C 3.738281 66.28125 3.925781 65.328125 4.25 64.40625 C 4.574219 63.484375 5.023438 62.625 5.597656 61.832031 C 6.171875 61.039062 6.84375 60.347656 7.621094 59.75 C 8.394531 59.15625 9.242188 58.683594 10.152344 58.332031 C 11.066406 57.984375 12.011719 57.769531 12.984375 57.695312 C 13.960938 57.621094 14.925781 57.6875 15.882812 57.890625 C 16.839844 58.097656 17.746094 58.4375 18.601562 58.90625 C 19.460938 59.378906 20.234375 59.960938 20.921875 60.65625 L 42.011719 81.765625 C 42.695312 82.449219 43.410156 83.097656 44.15625 83.707031 C 44.90625 84.320312 45.683594 84.894531 46.488281 85.425781 C 47.292969 85.960938 48.121094 86.453125 48.976562 86.902344 C 49.832031 87.355469 50.707031 87.761719 51.601562 88.125 C 52.496094 88.488281 53.410156 88.804688 54.335938 89.078125 C 55.261719 89.347656 56.199219 89.574219 57.152344 89.75 C 58.101562 89.929688 59.054688 90.058594 60.019531 90.140625 C 60.980469 90.222656 61.945312 90.253906 62.910156 90.242188 C 63.878906 90.226562 64.839844 90.164062 65.800781 90.050781 C 66.757812 89.941406 67.710938 89.78125 68.652344 89.574219 C 69.597656 89.367188 70.527344 89.113281 71.445312 88.8125 C 72.363281 88.511719 73.265625 88.167969 74.148438 87.777344 C 75.035156 87.386719 75.894531 86.953125 76.734375 86.476562 C 77.578125 86 78.390625 85.480469 79.179688 84.921875 C 79.96875 84.363281 80.726562 83.769531 81.453125 83.132812 C 82.183594 82.5 82.878906 81.828125 83.539062 81.125 Z M 368.453125 324.882812 C 367.941406 326.792969 367.339844 328.675781 366.648438 330.527344 C 365.953125 332.375 365.167969 334.1875 364.296875 335.960938 C 363.425781 337.738281 362.46875 339.464844 361.425781 341.144531 C 360.386719 342.824219 359.265625 344.449219 358.0625 346.015625 C 356.863281 347.585938 355.585938 349.09375 354.238281 350.535156 C 352.886719 351.980469 351.472656 353.355469 349.988281 354.660156 C 348.503906 355.964844 346.957031 357.191406 345.351562 358.34375 C 343.746094 359.496094 342.089844 360.566406 340.378906 361.558594 C 338.671875 362.546875 336.914062 363.449219 335.117188 364.265625 C 333.316406 365.082031 331.484375 365.808594 329.613281 366.445312 C 327.742188 367.082031 325.847656 367.625 323.921875 368.074219 C 322 368.523438 320.058594 368.878906 318.097656 369.136719 C 316.140625 369.394531 314.175781 369.558594 312.199219 369.621094 C 310.226562 369.6875 308.253906 369.65625 306.28125 369.527344 C 304.3125 369.398438 302.351562 369.171875 300.402344 368.851562 C 298.453125 368.527344 296.523438 368.109375 294.617188 367.597656 C 292.710938 367.089844 290.832031 366.484375 288.980469 365.789062 C 287.132812 365.089844 285.324219 364.304688 283.550781 363.429688 C 281.78125 362.554688 280.054688 361.597656 278.378906 360.550781 C 276.703125 359.507812 275.078125 358.382812 273.511719 357.179688 C 271.945312 355.976562 270.441406 354.699219 269 353.347656 C 267.558594 351.992188 266.1875 350.574219 264.886719 349.085938 C 263.585938 347.601562 262.359375 346.054688 261.207031 344.445312 C 260.058594 342.839844 258.992188 341.179688 258.003906 339.464844 C 257.015625 337.753906 256.117188 335.996094 255.300781 334.195312 C 254.488281 332.394531 253.765625 330.558594 253.128906 328.683594 C 252.496094 326.8125 251.957031 324.914062 251.507812 322.988281 C 251.0625 321.0625 250.710938 319.117188 250.453125 317.160156 C 250.199219 315.199219 250.039062 313.230469 249.976562 311.253906 C 249.914062 309.277344 249.945312 307.304688 250.078125 305.332031 C 250.207031 303.359375 250.433594 301.398438 250.757812 299.445312 C 251.082031 297.496094 251.5 295.566406 252.015625 293.65625 C 252.132812 293.214844 252.304688 292.800781 252.433594 292.363281 L 211.597656 251.496094 L 211.757812 251.335938 C 212.261719 250.832031 212.734375 250.304688 213.183594 249.757812 C 213.632812 249.207031 214.054688 248.636719 214.449219 248.046875 C 214.84375 247.457031 215.207031 246.847656 215.539062 246.21875 C 215.875 245.59375 216.175781 244.953125 216.445312 244.296875 C 216.71875 243.640625 216.957031 242.972656 217.160156 242.292969 C 217.367188 241.613281 217.539062 240.925781 217.675781 240.226562 C 217.816406 239.53125 217.917969 238.832031 217.988281 238.125 C 218.058594 237.417969 218.09375 236.707031 218.09375 236 C 218.09375 235.289062 218.058594 234.582031 217.988281 233.875 C 217.917969 233.167969 217.816406 232.464844 217.675781 231.769531 C 217.539062 231.074219 217.367188 230.382812 217.160156 229.707031 C 216.957031 229.027344 216.71875 228.359375 216.445312 227.703125 C 216.175781 227.046875 215.875 226.402344 215.539062 225.777344 C 215.207031 225.152344 214.84375 224.542969 214.449219 223.953125 C 214.054688 223.359375 213.632812 222.789062 213.183594 222.242188 C 212.734375 221.691406 212.261719 221.164062 211.757812 220.664062 L 202.578125 211.472656 L 228.003906 186.027344 L 293.347656 251.425781 C 295.902344 250.675781 298.496094 250.09375 301.125 249.683594 C 303.757812 249.277344 306.402344 249.042969 309.066406 248.988281 C 311.726562 248.929688 314.378906 249.050781 317.027344 249.347656 C 319.671875 249.640625 322.289062 250.113281 324.871094 250.753906 C 327.453125 251.398438 329.984375 252.210938 332.460938 253.1875 C 334.9375 254.167969 337.335938 255.304688 339.664062 256.605469 C 341.988281 257.902344 344.21875 259.347656 346.351562 260.941406 C 348.484375 262.539062 350.503906 264.265625 352.40625 266.128906 C 354.3125 267.992188 356.085938 269.972656 357.726562 272.070312 C 359.367188 274.167969 360.863281 276.363281 362.214844 278.660156 C 363.5625 280.957031 364.757812 283.332031 365.792969 285.789062 C 366.828125 288.242188 367.695312 290.757812 368.398438 293.328125 C 369.097656 295.898438 369.628906 298.503906 369.984375 301.144531 C 370.339844 303.785156 370.519531 306.4375 370.527344 309.101562 C 370.53125 311.765625 370.359375 314.417969 370.011719 317.0625 C 369.664062 319.703125 369.144531 322.3125 368.453125 324.882812 Z M 352.636719 297.898438 L 321.59375 266.828125 L 279.191406 278.203125 L 267.828125 320.644531 L 298.871094 351.710938 L 341.277344 340.339844 Z M 369.3125 14.433594 C 369.636719 14.761719 369.898438 15.128906 370.101562 15.546875 C 370.300781 15.960938 370.425781 16.398438 370.480469 16.855469 C 370.53125 17.316406 370.507812 17.769531 370.40625 18.21875 C 370.304688 18.667969 370.128906 19.089844 369.886719 19.480469 L 334.351562 76.484375 C 334.027344 77 333.617188 77.429688 333.113281 77.773438 C 332.613281 78.117188 332.0625 78.347656 331.464844 78.457031 L 310.84375 82.34375 L 181.824219 211.472656 L 201.378906 231.046875 C 201.707031 231.375 201.996094 231.726562 202.25 232.109375 C 202.507812 232.492188 202.722656 232.894531 202.898438 233.320312 C 203.074219 233.746094 203.207031 234.183594 203.296875 234.632812 C 203.386719 235.085938 203.429688 235.539062 203.429688 236 C 203.429688 236.460938 203.386719 236.914062 203.296875 237.367188 C 203.207031 237.816406 203.074219 238.253906 202.898438 238.679688 C 202.722656 239.105469 202.507812 239.507812 202.25 239.890625 C 201.996094 240.273438 201.707031 240.625 201.378906 240.953125 L 194.296875 248.042969 C 193.847656 248.46875 193.339844 248.8125 192.777344 249.070312 C 192.210938 249.328125 191.621094 249.488281 191.003906 249.550781 C 190.386719 249.613281 189.777344 249.574219 189.171875 249.433594 C 188.566406 249.292969 188.003906 249.0625 187.476562 248.734375 C 186.707031 248.292969 185.902344 247.921875 185.070312 247.613281 C 184.242188 247.308594 183.390625 247.070312 182.519531 246.902344 C 181.648438 246.734375 180.769531 246.636719 179.882812 246.613281 C 178.996094 246.585938 178.117188 246.632812 177.238281 246.753906 C 176.359375 246.871094 175.496094 247.0625 174.648438 247.324219 C 173.800781 247.582031 172.980469 247.910156 172.183594 248.304688 C 171.390625 248.695312 170.632812 249.152344 169.914062 249.671875 C 169.191406 250.1875 168.519531 250.761719 167.890625 251.386719 C 167.265625 252.015625 166.691406 252.6875 166.175781 253.410156 C 165.660156 254.132812 165.203125 254.890625 164.808594 255.683594 C 164.417969 256.480469 164.089844 257.300781 163.828125 258.148438 C 163.570312 258.996094 163.382812 259.859375 163.261719 260.742188 C 163.144531 261.621094 163.097656 262.503906 163.121094 263.390625 C 163.144531 264.277344 163.242188 265.15625 163.410156 266.027344 C 163.578125 266.898438 163.816406 267.75 164.121094 268.582031 C 164.429688 269.414062 164.800781 270.21875 165.238281 270.988281 C 165.566406 271.515625 165.800781 272.082031 165.941406 272.6875 C 166.082031 273.289062 166.121094 273.902344 166.058594 274.519531 C 165.996094 275.136719 165.835938 275.726562 165.578125 276.292969 C 165.320312 276.855469 164.976562 277.363281 164.550781 277.816406 L 87.175781 355.253906 C 86.042969 356.390625 84.859375 357.46875 83.621094 358.484375 C 82.382812 359.503906 81.097656 360.460938 79.765625 361.355469 C 78.433594 362.246094 77.058594 363.070312 75.644531 363.828125 C 74.234375 364.585938 72.785156 365.273438 71.304688 365.886719 C 69.824219 366.503906 68.316406 367.042969 66.78125 367.511719 C 65.25 367.980469 63.695312 368.367188 62.125 368.683594 C 60.550781 368.996094 58.96875 369.234375 57.371094 369.390625 C 55.777344 369.550781 54.175781 369.628906 52.574219 369.628906 C 50.96875 369.632812 49.371094 369.554688 47.773438 369.398438 C 46.179688 369.238281 44.59375 369.003906 43.023438 368.691406 C 41.449219 368.378906 39.898438 367.992188 38.363281 367.527344 C 36.828125 367.0625 35.320312 366.523438 33.839844 365.90625 C 32.355469 365.292969 30.910156 364.609375 29.496094 363.851562 C 28.082031 363.097656 26.707031 362.273438 25.375 361.382812 C 24.042969 360.492188 22.753906 359.535156 21.515625 358.519531 C 20.277344 357.5 19.089844 356.425781 17.957031 355.289062 C 16.820312 354.15625 15.746094 352.96875 14.730469 351.726562 C 13.710938 350.484375 12.757812 349.199219 11.867188 347.863281 C 10.976562 346.53125 10.15625 345.15625 9.398438 343.738281 C 8.644531 342.324219 7.960938 340.875 7.347656 339.394531 C 6.734375 337.910156 6.195312 336.402344 5.730469 334.867188 C 5.265625 333.328125 4.875 331.773438 4.5625 330.199219 C 4.25 328.625 4.015625 327.042969 3.859375 325.445312 C 3.703125 323.847656 3.625 322.246094 3.628906 320.640625 C 3.628906 319.039062 3.707031 317.4375 3.867188 315.839844 C 4.023438 314.242188 4.257812 312.65625 4.574219 311.082031 C 4.886719 309.511719 5.277344 307.957031 5.742188 306.421875 C 6.210938 304.886719 6.75 303.375 7.367188 301.894531 C 7.980469 300.414062 8.667969 298.964844 9.421875 297.550781 C 10.179688 296.136719 11.003906 294.761719 11.898438 293.429688 C 12.789062 292.09375 13.742188 290.808594 14.761719 289.570312 C 15.78125 288.328125 16.855469 287.144531 17.992188 286.007812 L 95.363281 208.570312 C 95.816406 208.144531 96.320312 207.800781 96.886719 207.542969 C 97.449219 207.285156 98.039062 207.125 98.65625 207.0625 C 99.273438 207 99.882812 207.039062 100.488281 207.179688 C 101.09375 207.320312 101.660156 207.550781 102.183594 207.882812 C 102.957031 208.320312 103.757812 208.691406 104.589844 209 C 105.421875 209.304688 106.273438 209.542969 107.140625 209.710938 C 108.011719 209.878906 108.890625 209.976562 109.777344 210 C 110.664062 210.027344 111.546875 209.976562 112.425781 209.859375 C 113.304688 209.738281 114.164062 209.550781 115.011719 209.289062 C 115.859375 209.03125 116.683594 208.703125 117.476562 208.308594 C 118.269531 207.914062 119.027344 207.460938 119.75 206.941406 C 120.46875 206.425781 121.140625 205.851562 121.769531 205.226562 C 122.394531 204.597656 122.96875 203.921875 123.484375 203.203125 C 124 202.480469 124.457031 201.722656 124.851562 200.929688 C 125.246094 200.132812 125.570312 199.3125 125.832031 198.464844 C 126.089844 197.617188 126.28125 196.753906 126.398438 195.871094 C 126.519531 194.992188 126.566406 194.109375 126.539062 193.222656 C 126.515625 192.335938 126.417969 191.457031 126.25 190.585938 C 126.082031 189.714844 125.84375 188.863281 125.539062 188.03125 C 125.230469 187.199219 124.859375 186.394531 124.421875 185.625 C 124.09375 185.097656 123.859375 184.53125 123.71875 183.925781 C 123.578125 183.324219 123.539062 182.710938 123.601562 182.09375 C 123.664062 181.476562 123.824219 180.886719 124.085938 180.320312 C 124.34375 179.757812 124.683594 179.25 125.113281 178.796875 L 132.195312 171.707031 C 132.519531 171.382812 132.875 171.09375 133.257812 170.835938 C 133.636719 170.582031 134.042969 170.367188 134.464844 170.191406 C 134.890625 170.015625 135.328125 169.882812 135.777344 169.792969 C 136.230469 169.703125 136.683594 169.65625 137.144531 169.65625 C 137.601562 169.65625 138.058594 169.703125 138.507812 169.792969 C 138.960938 169.882812 139.398438 170.015625 139.820312 170.191406 C 140.246094 170.367188 140.648438 170.582031 141.03125 170.835938 C 141.414062 171.09375 141.765625 171.382812 142.089844 171.707031 L 161.648438 191.28125 L 290.671875 62.148438 L 294.550781 41.515625 C 294.664062 40.914062 294.890625 40.367188 295.234375 39.863281 C 295.578125 39.359375 296.007812 38.949219 296.523438 38.625 L 353.476562 3.058594 C 353.871094 2.8125 354.289062 2.640625 354.738281 2.539062 C 355.1875 2.4375 355.640625 2.414062 356.101562 2.464844 C 356.558594 2.519531 356.996094 2.644531 357.410156 2.84375 C 357.824219 3.046875 358.195312 3.308594 358.519531 3.636719 L 363.914062 9.035156 Z M 27.476562 334.222656 L 116.105469 245.519531 L 101.6875 231.089844 L 32.402344 300.433594 C 31.324219 301.515625 30.335938 302.675781 29.441406 303.914062 C 28.550781 305.152344 27.761719 306.457031 27.074219 307.820312 C 26.390625 309.1875 25.820312 310.597656 25.359375 312.058594 C 24.902344 313.515625 24.5625 315 24.34375 316.511719 C 24.121094 318.023438 24.023438 319.542969 24.046875 321.070312 C 24.070312 322.601562 24.214844 324.117188 24.480469 325.621094 C 24.746094 327.125 25.132812 328.601562 25.632812 330.042969 C 26.136719 331.484375 26.75 332.878906 27.476562 334.222656 Z M 142.050781 271.488281 L 127.632812 257.058594 L 39.003906 345.761719 C 40.347656 346.488281 41.738281 347.101562 43.179688 347.605469 C 44.625 348.109375 46.097656 348.492188 47.601562 348.757812 C 49.101562 349.027344 50.617188 349.171875 52.144531 349.195312 C 53.671875 349.21875 55.191406 349.117188 56.703125 348.898438 C 58.214844 348.675781 59.695312 348.335938 61.152344 347.878906 C 62.609375 347.417969 64.019531 346.847656 65.386719 346.160156 C 66.75 345.476562 68.050781 344.6875 69.289062 343.792969 C 70.527344 342.898438 71.6875 341.910156 72.769531 340.832031 Z M 142.050781 271.488281 " fill-opacity="1" fill-rule="nonzero"/></g></svg>