<svg xmlns="http://www.w3.org/2000/svg" xmlns:xlink="http://www.w3.org/1999/xlink" width="500" zoomAndPan="magnify" viewBox="0 0 375 374.999991" height="500" preserveAspectRatio="xMidYMid meet" version="1.0"><defs><g/><clipPath id="d1574013b3"><path d="M 42.660156 42.660156 L 332.339844 42.660156 L 332.339844 332.339844 L 42.660156 332.339844 Z M 42.660156 42.660156 " clip-rule="nonzero"/></clipPath><clipPath id="d66fe54a13"><path d="M 187.5 42.660156 C 107.507812 42.660156 42.660156 107.507812 42.660156 187.5 C 42.660156 267.492188 107.507812 332.339844 187.5 332.339844 C 267.492188 332.339844 332.339844 267.492188 332.339844 187.5 C 332.339844 107.507812 267.492188 42.660156 187.5 42.660156 Z M 187.5 42.660156 " clip-rule="nonzero"/></clipPath><clipPath id="87ea18f49e"><path d="M 42.660156 42.660156 L 332.160156 42.660156 L 332.160156 332.160156 L 42.660156 332.160156 Z M 42.660156 42.660156 " clip-rule="nonzero"/></clipPath><clipPath id="bf0c854e84"><path d="M 187.5 42.660156 C 107.507812 42.660156 42.660156 107.507812 42.660156 187.5 C 42.660156 267.488281 107.507812 332.335938 187.5 332.335938 C 267.488281 332.335938 332.335938 267.488281 332.335938 187.5 C 332.335938 107.507812 267.488281 42.660156 187.5 42.660156 Z M 187.5 42.660156 " clip-rule="nonzero"/></clipPath></defs><g clip-path="url(#d1574013b3)"><g clip-path="url(#d66fe54a13)"><path fill="#12664f" d="M 42.660156 42.660156 L 332.339844 42.660156 L 332.339844 332.339844 L 42.660156 332.339844 Z M 42.660156 42.660156 " fill-opacity="1" fill-rule="nonzero"/></g></g><g clip-path="url(#87ea18f49e)"><g clip-path="url(#bf0c854e84)"><path stroke-linecap="butt" transform="matrix(0.75, 0, 0, 0.75, 42.660551, 42.660547)" fill="none" stroke-linejoin="miter" d="M 193.119278 -0.000520732 C 86.463021 -0.000520732 -0.000526732 86.463027 -0.000526732 193.119284 C -0.000526732 299.770332 86.463021 386.23388 193.119278 386.23388 C 299.770326 386.23388 386.233874 299.770332 386.233874 193.119284 C 386.233874 86.463027 299.770326 -0.000520732 193.119278 -0.000520732 Z M 193.119278 -0.000520732 " stroke="#000000" stroke-width="52" stroke-opacity="1" stroke-miterlimit="4"/></g></g><g fill="#000000" fill-opacity="1"><g transform="translate(79.80057, 264.374983)"><g><path d="M 110.75 -89.0625 L 110.75 -142.78125 L 138.875 -142.78125 L 138.875 0 L 110.75 0 L 110.75 -65.046875 L 46.78125 -65.046875 L 46.78125 0 L 18.5625 0 L 18.5625 -142.78125 L 46.78125 -142.78125 L 46.78125 -89.0625 Z M 110.75 -89.0625 "/></g></g></g><g fill="#000000" fill-opacity="1"><g transform="translate(172.161893, 264.374983)"><g><path d="M 46.78125 -62.703125 L 46.78125 -23.640625 L 114.9375 -23.640625 L 114.9375 0 L 18.5625 0 L 18.5625 -142.78125 L 113.375 -142.78125 L 113.375 -119.140625 L 46.78125 -119.140625 L 46.78125 -85.75 L 104.984375 -85.75 L 104.984375 -62.703125 Z M 46.78125 -62.703125 "/></g></g></g></svg>